<svg width="500" height="500" viewBox="0 0 500 500" fill="none" xmlns="http://www.w3.org/2000/svg">
<rect width="500" height="500" rx="32" fill="#0A0A0A"/>
<path d="M246.5 214.855C248.975 213.426 252.025 213.426 254.5 214.855L278.878 228.929C281.353 230.358 282.878 232.999 282.878 235.857V264.006C282.878 266.864 281.353 269.505 278.878 270.934L254.5 285.009C252.025 286.438 248.975 286.438 246.5 285.009L222.123 270.934C219.648 269.505 218.123 266.864 218.123 264.006V235.857C218.123 232.999 219.648 230.358 222.123 228.929L246.5 214.855Z" fill="#5EEAD4"/>
<path d="M309.309 177.468C311.784 176.039 314.834 176.039 317.309 177.468L341.686 191.543C344.162 192.972 345.686 195.613 345.686 198.471V226.62C345.686 229.478 344.162 232.119 341.686 233.548L317.309 247.622C314.834 249.051 311.784 249.051 309.309 247.622L284.931 233.548C282.456 232.119 280.931 229.478 280.931 226.62V198.471C280.931 195.613 282.456 192.972 284.931 191.543L309.309 177.468Z" fill="#5EEAD4"/>
<path d="M373.614 140.082C376.089 138.653 379.138 138.653 381.614 140.082L405.991 154.156C408.466 155.585 409.991 158.227 409.991 161.085V189.233C409.991 192.092 408.466 194.733 405.991 196.162L381.614 210.236C379.138 211.665 376.089 211.665 373.614 210.236L349.236 196.162C346.761 194.733 345.236 192.092 345.236 189.233V161.085C345.236 158.227 346.761 155.585 349.236 154.156L373.614 140.082Z" fill="#5EEAD4"/>
<path d="M309.309 252.241C311.784 250.812 314.834 250.812 317.309 252.241L341.686 266.316C344.162 267.745 345.686 270.386 345.686 273.244V301.393C345.686 304.251 344.162 306.892 341.686 308.321L317.309 322.395C314.834 323.824 311.784 323.824 309.309 322.395L284.931 308.321C282.456 306.892 280.931 304.251 280.931 301.393V273.244C280.931 270.386 282.456 267.745 284.931 266.316L309.309 252.241Z" fill="#5EEAD4"/>
<path d="M373.614 289.628C376.089 288.199 379.138 288.199 381.614 289.628L405.991 303.702C408.466 305.131 409.991 307.772 409.991 310.63V338.779C409.991 341.637 408.466 344.278 405.991 345.707L381.614 359.782C379.138 361.211 376.089 361.211 373.614 359.782L349.236 345.707C346.761 344.278 345.236 341.637 345.236 338.779V310.63C345.236 307.772 346.761 305.131 349.236 303.702L373.614 289.628Z" fill="#5EEAD4"/>
<path d="M246.5 289.628C248.975 288.199 252.025 288.199 254.5 289.628L278.878 303.702C281.353 305.131 282.878 307.772 282.878 310.63V338.779C282.878 341.637 281.353 344.278 278.878 345.707L254.5 359.782C252.025 361.211 248.975 361.211 246.5 359.782L222.123 345.707C219.648 344.278 218.123 341.637 218.123 338.779V310.63C218.123 307.772 219.648 305.131 222.123 303.702L246.5 289.628Z" fill="#5EEAD4"/>
<path d="M246.5 364.4C248.975 362.971 252.025 362.971 254.5 364.4L278.878 378.475C281.353 379.904 282.878 382.545 282.878 385.403V413.552C282.878 416.41 281.353 419.051 278.878 420.48L254.5 434.554C252.025 435.983 248.975 435.983 246.5 434.554L222.123 420.48C219.648 419.051 218.123 416.41 218.123 413.552V385.403C218.123 382.545 219.648 379.904 222.123 378.475L246.5 364.4Z" fill="#5EEAD4"/>
<path d="M183.691 252.241C186.166 250.812 189.216 250.812 191.691 252.241L216.069 266.316C218.544 267.745 220.069 270.386 220.069 273.244V301.393C220.069 304.251 218.544 306.892 216.069 308.321L191.691 322.395C189.216 323.824 186.166 323.824 183.691 322.395L159.314 308.321C156.838 306.892 155.314 304.251 155.314 301.393V273.244C155.314 270.386 156.838 267.745 159.314 266.316L183.691 252.241Z" fill="#5EEAD4"/>
<path d="M119.386 289.628C121.862 288.199 124.911 288.199 127.386 289.628L151.764 303.702C154.239 305.131 155.764 307.772 155.764 310.63V338.779C155.764 341.637 154.239 344.278 151.764 345.707L127.386 359.782C124.911 361.211 121.862 361.211 119.386 359.782L95.0089 345.707C92.5336 344.278 91.0089 341.637 91.0089 338.779V310.63C91.0089 307.772 92.5336 305.131 95.0089 303.702L119.386 289.628Z" fill="#5EEAD4"/>
<path d="M183.691 177.468C186.166 176.039 189.216 176.039 191.691 177.468L216.069 191.543C218.544 192.972 220.069 195.613 220.069 198.471V226.62C220.069 229.478 218.544 232.119 216.069 233.548L191.691 247.622C189.216 249.051 186.166 249.051 183.691 247.622L159.314 233.548C156.838 232.119 155.314 229.478 155.314 226.62V198.471C155.314 195.613 156.838 192.972 159.314 191.543L183.691 177.468Z" fill="#5EEAD4"/>
<path d="M119.386 140.082C121.862 138.653 124.911 138.653 127.386 140.082L151.764 154.156C154.239 155.585 155.764 158.227 155.764 161.085V189.233C155.764 192.092 154.239 194.733 151.764 196.162L127.386 210.236C124.911 211.665 121.862 211.665 119.386 210.236L95.0089 196.162C92.5336 194.733 91.0089 192.092 91.0089 189.233V161.085C91.0089 158.227 92.5336 155.585 95.0089 154.156L119.386 140.082Z" fill="#5EEAD4"/>
<path d="M246.5 140.082C248.975 138.653 252.025 138.653 254.5 140.082L278.878 154.156C281.353 155.585 282.878 158.227 282.878 161.085V189.233C282.878 192.092 281.353 194.733 278.878 196.162L254.5 210.236C252.025 211.665 248.975 211.665 246.5 210.236L222.123 196.162C219.648 194.733 218.123 192.092 218.123 189.233V161.085C218.123 158.227 219.648 155.585 222.123 154.156L246.5 140.082Z" fill="#5EEAD4"/>
<path d="M246.5 65.3093C248.975 63.8803 252.025 63.8803 254.5 65.3093L278.878 79.3837C281.353 80.8128 282.878 83.4538 282.878 86.3119V114.461C282.878 117.319 281.353 119.96 278.878 121.389L254.5 135.463C252.025 136.892 248.975 136.892 246.5 135.463L222.123 121.389C219.648 119.96 218.123 117.319 218.123 114.461V86.3119C218.123 83.4538 219.648 80.8128 222.123 79.3837L246.5 65.3093Z" fill="#5EEAD4"/>
</svg>
